<svg id="ehEQqMTxO381" xmlns="http://www.w3.org/2000/svg" xmlns:xlink="http://www.w3.org/1999/xlink" viewBox="0 0 1920 1080" shape-rendering="geometricPrecision" text-rendering="geometricPrecision"><line x1="0" y1="242.931298" x2="0" y2="-242.931298" transform="matrix(1 0 0 1.064994 429.435116 568.546926)" fill="none" stroke="#fff" stroke-width="3"/><line x1="-530.564885" y1="0" x2="530.564885" y2="0" transform="translate(960.000001 827.267176)" fill="none" stroke="#fff" stroke-width="3"/><line x1="0" y1="287.267176" x2="0" y2="-287.267175" transform="translate(1490.564886 540.000001)" fill="none" stroke="#fff" stroke-width="3"/><line x1="530.564885" y1="0" x2="-530.564885" y2="0" transform="translate(960.000001 252.732826)" fill="none" stroke="#fff" stroke-width="3"/><line x1="0" y1="-44.335877" x2="0" y2="44.335878" transform="matrix(1 0 0 0.704676 429.435116 283.975254)" fill="none" stroke="#fff" stroke-width="3"/><line x1="-530.564885" y1="0" x2="530.564885" y2="0" transform="translate(960.000001 315.217683)" fill="none" stroke="#fff" stroke-width="3"/><ellipse rx="34.573979" ry="17.5" transform="matrix(.506161 0 0 1 464.59624 283.975255)" fill="none" stroke="#fffafa" stroke-width="5"/><ellipse rx="34.573979" ry="17.5" transform="matrix(.506161 0 0 1 527.976753 283.975255)" fill="none" stroke="#fffafa" stroke-width="5"/><ellipse rx="34.573979" ry="17.5" transform="matrix(.506161 0 0 1 587.131899 283.975255)" fill="none" stroke="#fffafa" stroke-width="5"/></svg>
