<svg id="ejads1xD80J1" xmlns="http://www.w3.org/2000/svg" xmlns:xlink="http://www.w3.org/1999/xlink" viewBox="0 0 300 300" shape-rendering="geometricPrecision" text-rendering="geometricPrecision"><ellipse rx="124.167817" ry="128.577812" transform="matrix(.966434 0 0 0.933287 150 145.929543)" fill="rgba(255,255,255,0)" stroke="#1f1f1f" stroke-width="6"/><g transform="translate(0 0.000001)"><g><line x1="0" y1="-28.147009" x2="0" y2="28.147009" transform="matrix(-1 0 0 0.895656 159.673188 76.573323)" fill="none" stroke="#1f1f1f" stroke-width="6" stroke-linecap="round"/></g><line x1="0" y1="-28.147009" x2="0" y2="28.147009" transform="matrix(-1 0 0 0.895656 159.673188 126.993397)" fill="none" stroke="#1f1f1f" stroke-width="6" stroke-linecap="round"/></g><g transform="matrix(-1 0 0 1.429388 319.346375 102.012006)"><line x1="0" y1="-28.147009" x2="0" y2="28.147009" transform="matrix(-1 0 0 0.895656 159.673188 76.573323)" fill="none" stroke="#1f1f1f" stroke-width="6" stroke-linecap="round"/></g><line x1="0" y1="-28.147009" x2="0" y2="28.147009" transform="matrix(-.775813 0.630963 0.788241 0.969196 191.326154 197.639642)" fill="none" stroke="#1f1f1f" stroke-width="6" stroke-linecap="round"/><line x1="0" y1="-28.147009" x2="0" y2="28.147009" transform="matrix(.72305 0.690796-1.02842 1.076439 190.231788 216.671092)" fill="none" stroke="#1f1f1f" stroke-width="6" stroke-linecap="round"/><line x1="0" y1="-28.147009" x2="0" y2="28.147009" transform="matrix(.280859-.959749 0.680412 0.199114 179.055197 113.236869)" fill="none" stroke="#1f1f1f" stroke-width="6" stroke-linecap="round"/><line x1="0" y1="-28.147009" x2="0" y2="28.147009" transform="matrix(.280859-.959749 0.680412 0.199114 180.149563 92.154801)" fill="none" stroke="#1f1f1f" stroke-width="6" stroke-linecap="round"/><line x1="0" y1="-28.147009" x2="0" y2="28.147009" transform="matrix(-.282624 0.959231 0.842987 0.248374 183.631202 58.354283)" fill="none" stroke="#1f1f1f" stroke-width="6" stroke-linecap="round"/><g transform="matrix(1.082071-.012595 0.010978 0.943152-24.168805 2.444887)"><line x1="0" y1="-28.147009" x2="0" y2="28.147009" transform="matrix(.275569 0.961281-.925839 0.265409 112.187076 187.352325)" fill="none" stroke="#1f1f1f" stroke-width="6" stroke-linecap="round"/><line x1="0" y1="-28.147009" x2="0" y2="28.147009" transform="matrix(.275569 0.961281-.925839 0.265409 164.306264 172.411395)" fill="none" stroke="#1f1f1f" stroke-width="6" stroke-linecap="round"/><line x1="0" y1="-28.147009" x2="0" y2="28.147009" transform="matrix(.275569 0.961281-.925839 0.265409 216.422768 157.470467)" fill="none" stroke="#1f1f1f" stroke-width="6" stroke-linecap="round"/></g><line x1="0" y1="-28.147009" x2="0" y2="28.147009" transform="matrix(-.658005 0.753013 1.195685 1.044825 104.598482 216.671092)" fill="none" stroke="#1f1f1f" stroke-width="6" stroke-linecap="round"/><g transform="translate(0 0.000001)"><line x1="0" y1="-28.147009" x2="0" y2="28.147009" transform="matrix(-1 0 0 0.945898 140.02658 145.929543)" fill="none" stroke="#1f1f1f" stroke-width="6" stroke-linecap="round"/><line x1="0" y1="-28.147009" x2="0" y2="28.147009" transform="matrix(-1 0 0 1.319444 140.02658 209.831217)" fill="none" stroke="#1f1f1f" stroke-width="6" stroke-linecap="round"/></g><line x1="0" y1="-28.147009" x2="0" y2="28.147009" transform="matrix(.275569 0.961281-.952805 0.273139 113.207978 126.993391)" fill="none" stroke="#1f1f1f" stroke-width="6" stroke-linecap="round"/><line x1="0" y1="-28.147009" x2="0" y2="28.147009" transform="matrix(-1 0 0 0.632963 85.831806 115.802857)" fill="none" stroke="#1f1f1f" stroke-width="6" stroke-linecap="round"/><line x1="0" y1="-28.147009" x2="0" y2="28.147009" transform="matrix(.275569 0.961281-.952805 0.273139 113.207978 90.298794)" fill="none" stroke="#1f1f1f" stroke-width="6" stroke-linecap="round"/><line x1="0" y1="-28.147009" x2="0" y2="28.147009" transform="matrix(-1 0 0 0.546278 140.02658 67.234654)" fill="none" stroke="#1f1f1f" stroke-width="6" stroke-linecap="round"/><line x1="0" y1="-28.147009" x2="0" y2="28.147009" transform="matrix(.275569 0.961281-.952805 0.273139 113.207978 59.051334)" fill="none" stroke="#1f1f1f" stroke-width="6" stroke-linecap="round"/></svg>
